<?xml version="1.0" encoding="utf-8"?>
<!-- Generator: Adobe Illustrator 19.2.1, SVG Export Plug-In . SVG Version: 6.00 Build 0)  -->
<svg version="1.1" id="Layer_1" xmlns="http://www.w3.org/2000/svg" xmlns:xlink="http://www.w3.org/1999/xlink" x="0px" y="0px"
	 viewBox="0 0 98 98" style="enable-background:new 0 0 98 98;" xml:space="preserve">
<style type="text/css">
	.st0{fill:#FFFFFF;}
	.st1{fill:#3677BC;}
</style>
<g>
	<path class="st0" d="M49,98c-13.1,0-25.4-5.1-34.6-14.4S0,62.1,0,49s5.1-25.4,14.4-34.6C23.6,5.1,35.9,0,49,0
		c13.1,0,25.4,5.1,34.6,14.4C92.9,23.6,98,35.9,98,49c0,13.1-5.1,25.4-14.4,34.6S62.1,98,49,98z"/>
	<circle class="st1" cx="49" cy="49" r="45.2"/>
	<path class="st0" d="M88.2,48.4c0,0,0-0.1,0-0.1c0-0.1,0-0.2,0-0.2c0-0.1,0-0.2,0-0.2c-0.2-1.1-0.9-2.1-1.6-2.9
		c0,0-0.1-0.1-0.1-0.1c-1.4-1.5-3.3-2.6-5.1-3.5c-1.6-0.8-3.3-1.4-5.1-2c0,0,0,0-0.1,0v0c0,0,0,0,0.1,0c-0.7-0.2-1.4-0.4-2.1-0.6
		c0,0,0,0,0,0c0,0,0,0,0,0c0.3-0.5,0.6-1,0.8-1.5c0,0,0,0,0,0c0.3-0.5,0.5-1.1,0.8-1.6c0,0,0,0,0,0c0.1-0.2,0.2-0.4,0.3-0.6
		c0,0,0,0,0,0c0.2,0,0.4,0.1,0.6,0.1c2.3,0,4.1-1.9,4.1-4.1c0,0,0-0.1,0-0.1c0-0.1,0-0.1,0-0.2c0,0,0,0,0,0c0,0,0,0,0-0.1
		c0,0,0-0.1,0-0.1c0,0,0,0,0,0c0-0.1,0-0.1,0-0.2c0-0.1,0-0.1,0-0.2c0,0,0-0.1,0-0.1c0-0.1,0-0.2-0.1-0.2c0,0,0-0.1,0-0.1
		c0,0,0,0,0,0c0-0.1,0-0.1-0.1-0.2c0-0.1,0-0.1-0.1-0.2c0,0,0,0,0-0.1c0,0,0-0.1-0.1-0.1c0,0,0-0.1-0.1-0.1c0,0,0-0.1-0.1-0.1
		c0-0.1-0.1-0.1-0.1-0.2c0-0.1-0.1-0.1-0.1-0.2c0,0-0.1-0.1-0.1-0.1c0,0,0,0,0,0c0,0-0.1-0.1-0.1-0.1c0,0-0.1-0.1-0.1-0.1
		c0,0,0,0,0,0c0,0-0.1-0.1-0.1-0.1c0,0,0,0,0,0c0,0,0,0,0,0c0,0-0.1-0.1-0.1-0.1c0,0,0,0,0,0l0,0c0,0,0,0,0,0c0,0-0.1,0-0.1-0.1
		c0,0,0,0,0,0c0,0,0,0,0,0c0,0,0,0,0,0c0,0-0.1-0.1-0.1-0.1c0,0,0,0-0.1,0c0,0,0,0,0,0c0,0,0,0-0.1,0c-0.1-0.1-0.2-0.1-0.4-0.2
		c0,0,0,0,0,0c0,0,0,0,0,0c0-0.5,0.1-0.9,0-1.4c0-0.1,0-0.1,0-0.2c0-0.1,0-0.1,0-0.2c0-0.1,0-0.2,0-0.3c-0.2-1.4-0.7-2.7-1.9-3.7
		C75,20.2,73,20,71.1,20.2c-0.5,0-0.9,0.1-1.4,0.2c0,0,0,0,0,0c-2.2,0.4-4.4,1.3-6.4,2.3c-1.2,0.6-2.4,1.1-3.5,1.7
		c-0.3-1.2-0.7-2.3-1.1-3.5c0,0,0,0,0,0l0-0.1c0,0,0,0,0,0c0,0,0,0,0,0c0,0,0,0,0,0c0.1,0,0.1-0.1,0.2-0.1c0.1-0.1,0.2-0.2,0.3-0.2
		c0,0,0.1-0.1,0.1-0.1c0.1-0.1,0.3-0.3,0.4-0.4c0.1-0.1,0.2-0.2,0.3-0.4c0,0,0,0,0-0.1c0,0,0,0,0,0c0-0.1,0.1-0.2,0.1-0.3v0
		c0,0,0,0,0,0c0,0,0,0,0,0c0-0.1,0-0.1,0.1-0.2c0,0,0-0.1,0.1-0.1c0.2-0.4,0.2-0.9,0.2-1.4c0-2.2-1.7-4-3.9-4.1c-0.1,0-0.1,0-0.2,0
		c-0.1,0-0.1,0-0.2,0c0,0-0.1,0-0.1,0c-0.6,0-1.1,0.2-1.6,0.5c0,0,0,0,0,0c-0.7-0.6-1.4-1.2-2.1-1.6c0,0,0,0,0,0c-1-0.6-2-0.9-3.1-1
		c-0.1,0-0.2,0-0.2,0h0c0,0-0.1,0-0.1,0h-3.5c0,0,0,0.1-0.1,0.2l-1.9,8.3c-1.5,0.3-2.9,0.7-4.2,1.1l-6.1-6.3l-5.7,3.5l2.4,8
		c-1.2,1-2.3,2.1-3.3,3.3L17.9,27l-3.3,6l6.1,5.7c-0.6,1.5-1,3.1-1.3,4.7l-8.2,2.3v6.8l8,1.6c0.3,1.6,0.7,3.2,1.2,4.7
		c0,0,0,0.1,0,0.1c0,0,0,0.1,0,0.1l-0.5,0.5L18.6,61l-4.2,4.4l3.6,5.7l8-2.6c1,1.2,2.1,2.3,3.3,3.4h0c0.1,0.1,0.1,0.1,0.2,0.2
		l-2.1,8.4l5.8,3.1l5.5-6.1c1.5,0.5,3,1,4.6,1.2l1.8,8.3H50c0,0,0.1,0,0.3,0h0c0.5-0.1,1.3-0.2,2-0.6c2.4-1.2,4-4,5.1-6.2
		c0.2-0.4,0.4-0.8,0.5-1.2c0.2-0.4,0.3-0.8,0.5-1.2c0,0,0,0,0,0c0,0,0,0,0,0c0-0.1,0.1-0.2,0.1-0.3v0c0,0,0,0,0,0
		c0.2-0.5,0.3-0.9,0.5-1.4c0,0,0,0,0,0c0.2-0.7,0.4-1.3,0.6-2c0.6,0.3,1.1,0.6,1.7,0.8c0,0,0.1,0,0.1,0.1c0,0,0,0,0,0
		c0.5,0.2,1,0.5,1.6,0.7c0,0,0,0,0,0c0,0,0,0,0,0.1h0c0,0.1,0,0.2,0,0.4c0,2.3,1.8,4.1,4.1,4.1c1.1,0,2.1-0.4,2.8-1.1
		c0.4-0.4,0.7-0.8,0.9-1.2h0c2.7,0.2,5.3-0.4,6.5-3.1c0.6-1.4,0.6-2.9,0.5-4.3c-0.1,0-0.2,0-0.2-0.1c0,0,0,0,0,0
		c0.1,0,0.2,0,0.3,0.1c0-0.3-0.1-0.5-0.1-0.8c0-0.1,0-0.2,0-0.3c-0.4-1.9-1-3.8-1.8-5.6c-0.1-0.2-0.2-0.4-0.3-0.7c0,0,0,0,0,0
		c0,0,0-0.1,0-0.1c0,0,0,0,0,0c-0.1-0.2-0.2-0.4-0.3-0.7c-0.5-1-1-2-1.6-3c0,0,0,0,0,0c0.8-0.2,1.5-0.4,2.3-0.6c0,0,0,0,0,0
		c0.1,0,0.2-0.1,0.3-0.1h0c0.4-0.1,0.9-0.3,1.3-0.4c0.2-0.1,0.5-0.2,0.7-0.2c0.8,1,1.9,1.6,3.3,1.6c2.3,0,4.1-1.8,4.1-4.1
		c0-0.3,0-0.6-0.1-0.9c0,0.1,0,0.1,0,0.2c0-0.2-0.1-0.4-0.2-0.6c0,0,0,0,0,0c0,0,0,0,0,0c0.2-0.2,0.4-0.3,0.6-0.5
		c0.2-0.2,0.4-0.3,0.5-0.5c0.9-1,1.6-2.3,1.7-3.7c0-0.1,0-0.1,0-0.2v0c0-0.1,0-0.2,0-0.3C88.2,48.6,88.2,48.5,88.2,48.4z M61.9,25.1
		c0.4-0.2,0.9-0.5,1.3-0.7c0,0,0,0,0,0c0.5-0.3,1-0.5,1.5-0.7c0,0,0,0,0,0c0.6-0.3,1.3-0.6,1.9-0.8c0.6-0.2,1.3-0.5,1.9-0.7
		c0.2-0.1,0.4-0.1,0.6-0.2c1.8-0.5,3.7-0.7,5.4,0c0.8,0.3,1.3,0.9,1.7,1.5c0,0,0,0.1,0.1,0.1c0,0,0,0.1,0.1,0.1c0,0,0,0,0,0
		c0,0,0,0.1,0,0.1c0,0,0,0,0,0c0,0.1,0,0.1,0.1,0.2c0,0,0,0,0,0c0,0,0,0,0,0.1c0,0.1,0.1,0.2,0.1,0.3c0,0.2,0.1,0.4,0.1,0.5
		c0.1,0.6,0.1,1.1,0.1,1.7c0,0,0,0,0,0c-0.1,0-0.1,0-0.2,0c-1.7,0-3.1,1-3.7,2.4c0,0.1-0.1,0.1-0.1,0.2c-0.1,0.1-0.1,0.3-0.1,0.4
		c0,0,0,0,0,0c0,0.2-0.1,0.3-0.1,0.5c0,0,0,0,0,0c0,0.1,0,0.1,0,0.2c0,0.1,0,0.2,0,0.3c0,0.9,0.3,1.8,0.8,2.5
		c0.1,0.1,0.1,0.1,0.2,0.2c0.1,0.1,0.1,0.1,0.2,0.2c0.1,0.1,0.1,0.1,0.2,0.2c0.1,0.1,0.1,0.1,0.2,0.2c0,0,0,0,0.1,0.1
		c0,0,0.1,0.1,0.1,0.1c0,0,0.1,0,0.1,0.1c0,0,0,0,0,0c0,0,0.1,0.1,0.1,0.1c0,0,0,0,0,0c0,0,0,0,0,0c-0.6,1.3-1.3,2.6-2,3.8
		c-3.3-0.8-6.7-1.4-10.1-1.8c-0.1-0.1-0.3-0.3-0.4-0.4c-0.2-1.7-0.4-3.4-0.7-5.1c0,0,0-0.1,0-0.1c0,0,0-0.1,0-0.1
		c0-0.2-0.1-0.4-0.1-0.6c0-0.2-0.1-0.3-0.1-0.5c0-0.2-0.1-0.3-0.1-0.5c-0.1-0.5-0.2-1.1-0.3-1.6c0,0,0-0.1,0-0.1
		c0-0.1-0.1-0.2-0.1-0.4c0-0.2-0.1-0.4-0.1-0.6c0-0.2-0.1-0.4-0.1-0.6c0,0,0,0,0,0C60.7,25.7,61.3,25.4,61.9,25.1z M67,46.4
		c-0.1-0.4-0.1-0.7-0.2-1.1v0c-0.3-1.7-0.9-3.3-1.7-4.8c0,0,0,0,0,0c-0.3-0.6-0.6-1.1-1-1.6c0-0.1-0.1-0.1-0.1-0.2
		c-0.1-0.1-0.1-0.2-0.2-0.3c0,0,0,0,0,0c2.6,0.3,5.1,0.8,7.7,1.4c0,0,0,0,0,0C70.2,42,68.7,44.2,67,46.4C67,46.3,67,46.3,67,46.4z
		 M67.3,52.5c0.1,0.1,0.2,0.2,0.2,0.3c0.2,0.3,0.4,0.5,0.6,0.8c1.1,1.4,2.1,2.9,3,4.5c0,0,0,0,0,0c-0.9,0.2-1.7,0.4-2.6,0.5
		c-1.5,0.3-3.1,0.5-4.6,0.7c1.3-1.9,2.3-4.1,2.8-6.5c0,0,0,0,0,0c0.1-0.3,0.1-0.6,0.2-0.9c0,0,0,0,0,0
		C67.1,52.2,67.2,52.3,67.3,52.5z M58.8,26.9C58.8,26.9,58.8,26.9,58.8,26.9C58.8,26.9,58.8,26.9,58.8,26.9c0.2,0.9,0.4,1.8,0.6,2.8
		c0,0,0,0.1,0,0.1c0,0.2,0.1,0.4,0.1,0.6c0,0.2,0.1,0.4,0.1,0.6c0.2,1.2,0.4,2.4,0.5,3.5c-1.2-0.9-2.5-1.7-3.9-2.3
		c-1.4-0.6-2.9-1.1-4.4-1.3c0,0,0,0,0,0C54,29.4,56.4,28.2,58.8,26.9z M48.8,20.5L48.8,20.5v-1.4v-6.6c0,0,0,0,0,0
		c1.3,0.1,2.8,0.6,3.8,1.4c0.2,0.1,0.3,0.3,0.5,0.4c0.1,0.1,0.1,0.1,0.2,0.2c0,0,0,0,0,0l0,0c0,0,0,0,0,0c-0.1,0.1-0.3,0.3-0.4,0.4
		l0,0c-0.3,0.4-0.5,0.8-0.7,1.3c0.1-0.5,0.4-0.9,0.7-1.3c0,0,0,0,0,0c0,0,0,0.1-0.1,0.1c0,0-0.1,0.1-0.1,0.1
		c-0.1,0.1-0.1,0.2-0.2,0.3c0,0,0,0.1,0,0.1c0,0,0,0,0,0c0,0,0,0.1-0.1,0.1c0,0,0,0,0,0c0,0,0,0,0,0.1c0,0,0,0.1,0,0.1c0,0,0,0,0,0
		c0,0,0,0.1-0.1,0.1c0,0,0,0.1-0.1,0.1c0,0,0,0.1,0,0.1c0,0.1,0,0.1-0.1,0.2c0,0.1,0,0.1,0,0.2c0,0,0,0.1,0,0.1c0,0,0,0,0,0.1
		c0,0,0,0,0,0.1c0,0,0,0.1,0,0.1c0,0,0,0.1,0,0.1c0,0,0,0,0,0c0,0,0,0.1,0,0.1c0,0,0,0,0,0c0,0,0,0,0,0c0,0,0,0,0,0
		c0,0.1,0,0.1,0,0.2c0,0.7,0.2,1.3,0.5,1.9l0,0h0c0.4,0.7,0.9,1.3,1.6,1.7h0c0.6,0.3,1.3,0.5,2,0.5c0.1,0,0.2,0,0.3,0h0
		c0.2,0,0.4,0,0.7-0.1c0,0,0,0,0,0c0.3,0.7,0.5,1.5,0.8,2.3c0,0,0,0,0,0c0,0,0,0.1,0,0.1c0,0.2,0.1,0.3,0.1,0.5c0,0,0,0.1,0,0.1
		c0.1,0.2,0.1,0.5,0.2,0.7c0,0,0,0,0,0c0,0,0,0,0,0c-2.9,1.5-5.7,3.2-8.3,5.1c-0.1,0.1-0.2,0.1-0.2,0.2c-0.1,0.1-0.2,0.2-0.3,0.2
		l0,0c-0.2,0-0.4,0-0.5,0c0,0,0,0,0,0c0,0,0,0,0,0c0,0,0,0,0,0V20.5z M48.5,65.8L48.5,65.8C39.3,65.5,32,58,32,48.9
		c0-9.2,7.5-16.8,16.7-16.9v0c0,0,0.1,0,0.1,0c0.2,0,0.4,0,0.6,0c0,0,0,0,0,0h0c0,0,0,0,0,0c0.1,0,0.3,0,0.4,0c0,0,0,0,0,0
		c0,0-0.1-0.1-0.1-0.1c0,0,0,0,0,0c0,0,0,0-0.1,0c0.2,0,0.4,0,0.6,0c0,0-0.1,0-0.1,0.1c0,0-0.1,0.1-0.1,0.1c0.2,0,0.3,0,0.5,0.1h0
		c0.1,0,0.2,0,0.3,0.1c0,0,0,0,0,0c3.4,0.5,6.4,2,8.9,4.1l0,0c0.2,0.2,0.4,0.4,0.6,0.6l0,0c0.4,0.4,0.7,0.7,1.1,1.2
		c0.2,0.3,0.5,0.6,0.7,0.9v0c0,0,0,0,0,0c1.8,2.4,2.9,5.4,3.2,8.6c0,0.2,0,0.5,0,0.7c0,0.2,0,0.5,0,0.7c0,0.4,0,0.8,0,1.1
		c0,0.2,0,0.5-0.1,0.7c-0.3,3-1.5,5.8-3.2,8.2c-0.1,0.2-0.3,0.4-0.5,0.6c-0.4,0.5-0.8,1-1.3,1.5c-0.1,0.1-0.2,0.2-0.3,0.3
		c-1,0.9-2,1.7-3.2,2.4c-0.2,0.1-0.5,0.3-0.7,0.4c-1.8,0.9-3.8,1.4-5.9,1.6c-0.1,0.1-0.2,0.1-0.2,0.2c-0.1-0.1-0.1-0.1-0.2-0.2
		c-0.3,0-0.6,0-1,0h-0.2C48.6,65.8,48.5,65.8,48.5,65.8z M57.5,75.4C57.4,76,57.2,76.5,57,77c0.2-0.1,0.3-0.1,0.5-0.1
		c-0.2,0-0.4,0.1-0.5,0.1c-0.5,1.3-1,2.5-1.7,3.7c0,0,0.1-0.1,0.1-0.2c0,0.1-0.1,0.2-0.1,0.3c-0.7,1.3-1.5,2.5-2.6,3.5
		c-0.1,0.1-0.1,0.1-0.2,0.2c-0.8,0.7-2.6,0.9-3.7,0.9h0V67.4h0v0h0.6c2.7,2.1,5.8,4,8.9,5.7c0,0,0,0,0,0c0,0,0,0,0,0
		C58.1,73.8,57.8,74.6,57.5,75.4z M58.7,71.2c-2.2-1.3-4.6-2.6-6.9-4.1c0.6-0.1,1.2-0.2,1.7-0.4c0.4-0.1,0.8-0.2,1.2-0.4
		c0.2-0.1,0.5-0.2,0.7-0.3c0.2-0.1,0.5-0.2,0.7-0.3c0.2-0.1,0.3-0.1,0.5-0.2c0.3-0.1,0.6-0.3,0.9-0.5c1-0.5,1.9-1.1,2.7-1.8
		C59.8,65.9,59.4,68.6,58.7,71.2z M73.8,62.9C73.8,62.9,73.8,62.9,73.8,62.9c0.5,1,0.9,2.1,1.3,3.2c0.1,0.2,0.2,0.5,0.3,0.7
		c0,0,0,0,0,0c0,0,0,0.1,0,0.1c0.3,0.9,0.6,1.8,0.7,2.8c0.1,0.3,0.1,0.6,0.1,0.9c0,0.1,0,0.1,0,0.2c0,0.6,0,1.2,0,1.8
		c-0.2,1.3-0.9,2.5-2.1,3.1c-0.9,0.4-1.8,0.5-2.8,0.4c0,0,0,0,0,0h0c0,0,0,0,0-0.1c0,0,0,0,0,0c0,0,0-0.1,0-0.1c0,0,0-0.1,0-0.1
		c0,0,0,0,0,0v-0.1c0,0,0,0,0,0c0,0,0-0.1,0-0.1c-0.2-1.8-1.5-3.3-3.3-3.7c0,0,0,0,0,0c-0.2,0-0.5-0.1-0.8-0.1
		c-1.5,0-2.9,0.8-3.6,2.1c0,0,0,0,0,0c-1.2-0.6-2.3-1.2-3.4-1.8c0,0,0,0,0,0c0,0,0,0,0,0c0.2-0.6,0.3-1.3,0.5-1.9
		c0-0.2,0.1-0.4,0.1-0.7c0,0,0-0.1,0-0.1c0,0,0-0.1,0-0.1c0.2-0.8,0.3-1.6,0.4-2.4c0-0.1,0-0.2,0.1-0.3c0-0.1,0-0.2,0-0.3
		c0,0,0-0.1,0-0.1c0.1-0.8,0.3-1.7,0.4-2.5c0-0.2,0-0.3,0.1-0.5c0.1-0.5,0.1-0.9,0.2-1.4l0,0c0.2-0.2,0.3-0.3,0.5-0.5c0,0,0,0,0,0
		c0.8-0.1,1.6-0.2,2.4-0.3c0.7-0.1,1.4-0.2,2.1-0.3c0.2,0,0.4-0.1,0.7-0.1c1.5-0.3,2.9-0.6,4.4-0.9C72.7,60.6,73.3,61.8,73.8,62.9z
		 M78.2,57.7C78.2,57.7,78.2,57.7,78.2,57.7c0.1,0.2,0.3,0.4,0.5,0.5C78.5,58.1,78.3,57.9,78.2,57.7z M86.6,49.2L86.6,49.2
		c0,0.1,0,0.2,0,0.3c0,0.1,0,0.1,0,0.2v0c0,0,0,0,0,0c-0.3,1.1-1,2-1.9,2.8c-0.8-0.9-1.9-1.4-3.1-1.4c-1.1,0-2,0.4-2.7,1
		c-0.8,0.7-1.3,1.6-1.4,2.7c0,0,0-0.1,0.1-0.1c0,0,0,0,0,0c0,0.2,0,0.4,0,0.6c0,0.4,0,0.7,0.1,1c0,0,0,0,0,0
		c-0.2,0.1-0.4,0.1-0.6,0.2v0c-1.3,0.5-2.7,0.9-4.1,1.2c-1-1.7-2.1-3.3-3.2-4.9c-0.2-0.3-0.4-0.6-0.7-0.9c-0.1-0.1-0.2-0.2-0.2-0.3
		c-0.1-0.2-0.2-0.3-0.4-0.5c-0.2-0.3-0.5-0.6-0.7-1c-0.1-0.1-0.2-0.2-0.3-0.4c0,0,0,0,0,0c0-0.4,0-0.8,0-1.2c0,0,0,0.1-0.1,0.1v0
		c0,0,0-0.1,0.1-0.1c0,0,0.1-0.1,0.1-0.1c2.1-2.6,4.1-5.4,5.9-8.3c1,0.3,2,0.6,3.1,0.9c0,0,0,0,0,0c0.2,0.1,0.3,0.1,0.5,0.2l0,0
		c0.4,0.1,0.8,0.3,1.1,0.4c0,0,0,0,0,0c0.3,0.1,0.5,0.2,0.8,0.3c0.5,0.2,1,0.4,1.5,0.6c1.6,0.7,3.1,1.6,4.4,2.7
		c0.2,0.2,0.5,0.4,0.7,0.7c0.5,0.5,0.9,1.2,1.1,1.7c0,0.1,0.1,0.2,0.1,0.3v0c0,0,0,0.1,0,0.1c0.1,0.2,0.1,0.5,0.1,0.7
		C86.6,49,86.6,49.1,86.6,49.2z"/>
</g>
</svg>
